<?xml version="1.0" encoding="UTF-8" standalone="no"?>
<!DOCTYPE svg PUBLIC "-//W3C//DTD SVG 1.1//EN" "http://www.w3.org/Graphics/SVG/1.1/DTD/svg11.dtd">
<svg width="100%" height="100%" viewBox="0 0 112 112" version="1.1" xmlns="http://www.w3.org/2000/svg" xmlns:xlink="http://www.w3.org/1999/xlink" xml:space="preserve" xmlns:serif="http://www.serif.com/" style="fill-rule:evenodd;clip-rule:evenodd;stroke-linejoin:round;stroke-miterlimit:1.41421;">
    <g transform="matrix(4.16667,0,0,4.16667,-349.137,-1.00416)">
        <path d="M102.854,2.912C102.947,2.856 103.03,2.79 103.107,2.717C103.001,2.768 102.894,2.819 102.794,2.879C102.814,2.891 102.834,2.901 102.854,2.912Z" style="fill:white;fill-rule:nonzero;"/>
        <path d="M103.856,2.915C103.774,2.864 103.692,2.811 103.608,2.762C103.543,2.916 103.462,3.065 103.371,3.205C103.392,3.217 103.41,3.23 103.432,3.242C103.571,3.13 103.713,3.021 103.856,2.915Z" style="fill:white;fill-rule:nonzero;"/>
        <path d="M92.604,2.391C92.71,2.348 92.818,2.307 92.925,2.266C92.883,2.102 92.855,1.932 92.822,1.778C92.821,1.776 92.82,1.773 92.819,1.77C92.733,1.801 92.647,1.834 92.56,1.868C92.566,2.041 92.589,2.217 92.604,2.391Z" style="fill:white;fill-rule:nonzero;"/>
        <path d="M102.361,2.456C102.345,2.424 102.434,2.381 102.454,2.412C102.467,2.432 102.485,2.443 102.506,2.452C102.523,2.442 102.549,2.436 102.562,2.448C102.575,2.461 102.586,2.477 102.599,2.493C102.607,2.493 102.617,2.495 102.625,2.5C102.631,2.504 102.634,2.512 102.627,2.521C102.625,2.526 102.619,2.532 102.614,2.535C102.613,2.536 102.612,2.536 102.611,2.538C102.597,2.548 102.575,2.555 102.56,2.555C102.547,2.555 102.535,2.555 102.523,2.555C102.498,2.565 102.473,2.571 102.446,2.569C102.423,2.567 102.401,2.557 102.378,2.555C102.354,2.555 102.35,2.536 102.363,2.519C102.373,2.508 102.386,2.5 102.397,2.497C102.384,2.485 102.371,2.473 102.361,2.456ZM93.019,1.7C93.023,1.723 93.028,1.747 93.031,1.77C93.034,1.79 93.021,1.815 93.001,1.835C93.002,1.855 93.003,1.874 93.005,1.893C93.033,1.999 93.062,2.102 93.093,2.206C94.385,1.745 95.76,1.503 97.172,1.503C99.136,1.503 101.028,1.968 102.723,2.843C102.891,2.737 103.081,2.668 103.245,2.553C101.443,1.563 99.374,0.999 97.172,0.999C95.717,0.999 94.32,1.246 93.019,1.7Z" style="fill:white;fill-rule:nonzero;"/>
        <path d="M91.926,2.576C91.887,2.448 91.849,2.319 91.814,2.19C91.759,2.215 91.704,2.245 91.649,2.271C91.745,2.371 91.837,2.473 91.926,2.576Z" style="fill:white;fill-rule:nonzero;"/>
        <path d="M85.147,16.239C85.217,16.331 85.273,16.398 85.299,16.514C85.306,16.547 85.234,16.583 85.209,16.568C85.203,16.565 85.199,16.56 85.194,16.556C85.192,16.584 85.19,16.612 85.188,16.64C85.187,16.661 85.134,16.692 85.134,16.666C85.129,16.617 85.126,16.567 85.122,16.518C85.117,16.526 85.112,16.533 85.106,16.54C85.093,16.555 85.034,16.592 85.025,16.555C85.005,16.45 85.034,16.381 85.055,16.28C85.06,16.252 85.124,16.209 85.147,16.239ZM91.881,2.714C91.765,2.585 91.648,2.457 91.528,2.331C87.391,4.404 84.55,8.68 84.55,13.62C84.55,14.821 84.718,15.983 85.032,17.082C85.099,17.024 85.171,16.971 85.249,16.924C85.319,16.861 85.388,16.799 85.46,16.739C85.194,15.734 85.055,14.688 85.055,13.62C85.055,10.383 86.315,7.341 88.605,5.053C89.576,4.083 90.682,3.297 91.881,2.714Z" style="fill:white;fill-rule:nonzero;"/>
        <path d="M105.543,4.583C105.542,4.583 105.54,4.583 105.539,4.582C105.51,4.608 105.451,4.627 105.438,4.598C105.418,4.553 105.414,4.493 105.384,4.455C105.381,4.452 105.381,4.448 105.38,4.446C105.379,4.444 105.378,4.442 105.377,4.441C105.342,4.418 105.305,4.395 105.269,4.372C105.229,4.344 105.329,4.274 105.364,4.297C105.379,4.307 105.396,4.317 105.41,4.327C105.425,4.321 105.44,4.317 105.457,4.314C105.475,4.311 105.49,4.307 105.508,4.303C105.51,4.303 105.511,4.303 105.512,4.303C105.527,4.297 105.544,4.293 105.556,4.293C105.561,4.293 105.565,4.293 105.572,4.295C105.588,4.303 105.589,4.317 105.584,4.329C105.582,4.353 105.579,4.376 105.575,4.401C105.577,4.401 105.58,4.401 105.582,4.402C105.603,4.409 105.585,4.427 105.57,4.436C105.597,4.459 105.621,4.483 105.642,4.512C105.667,4.547 105.568,4.594 105.543,4.583ZM105.865,4.477C105.305,3.944 104.697,3.459 104.046,3.036C104.088,3.104 104.115,3.181 104.148,3.252C104.153,3.263 104.137,3.275 104.129,3.279C104.102,3.296 104.073,3.315 104.046,3.335C104.052,3.441 104.058,3.547 104.064,3.653C104.657,4.065 105.219,4.531 105.74,5.053C106.101,5.413 106.437,5.791 106.744,6.187C106.758,6.147 106.853,6.102 106.86,6.153C106.862,6.16 106.864,6.166 106.865,6.172C106.871,6.157 106.875,6.142 106.88,6.125C106.88,6.118 106.879,6.111 106.879,6.102C106.879,6.093 106.884,6.084 106.892,6.076C106.92,5.966 106.942,5.855 106.97,5.747C106.975,5.734 106.988,5.721 107.004,5.71C106.972,5.67 106.937,5.631 106.904,5.59C106.882,5.617 106.84,5.633 106.813,5.625C106.74,5.601 106.672,5.571 106.606,5.536C106.586,5.61 106.556,5.643 106.485,5.712C106.468,5.729 106.388,5.761 106.386,5.716C106.38,5.581 106.342,5.458 106.302,5.333C106.111,5.196 105.966,4.989 105.877,4.775C105.872,4.76 105.879,4.748 105.892,4.737C105.864,4.674 105.838,4.609 105.816,4.543C105.808,4.517 105.836,4.493 105.865,4.477Z" style="fill:white;fill-rule:nonzero;"/>
        <path d="M107.437,20.378C107.425,20.358 107.47,20.342 107.492,20.338C107.496,20.332 107.499,20.327 107.503,20.321C107.474,20.332 107.416,20.337 107.446,20.303C107.541,20.194 107.619,20.094 107.78,20.122C107.8,20.125 107.813,20.141 107.795,20.159C107.785,20.168 107.775,20.18 107.764,20.19C107.772,20.194 107.776,20.2 107.773,20.209C107.757,20.299 107.714,20.364 107.636,20.397C107.651,20.402 107.661,20.413 107.644,20.43C107.612,20.458 107.581,20.489 107.553,20.518C107.542,20.528 107.501,20.545 107.479,20.54C107.451,20.545 107.42,20.545 107.429,20.522C107.437,20.495 107.447,20.469 107.457,20.443C107.457,20.428 107.458,20.413 107.462,20.399C107.453,20.395 107.445,20.389 107.437,20.378ZM109.529,13.071C109.53,13.074 109.533,13.076 109.534,13.079C109.556,12.998 109.583,12.919 109.588,12.836C109.589,12.793 109.699,12.768 109.716,12.811C109.759,12.933 109.809,13.157 109.687,13.248C109.675,13.258 109.619,13.274 109.607,13.253C109.594,13.264 109.574,13.271 109.553,13.272C109.563,13.321 109.578,13.367 109.598,13.41C109.609,13.432 109.542,13.441 109.529,13.43C109.44,13.356 109.42,13.209 109.414,13.104C109.411,13.063 109.505,13.044 109.529,13.071ZM109.651,13.971C109.633,13.977 109.614,13.978 109.596,13.975C109.591,13.998 109.586,14.02 109.578,14.041C109.569,14.069 109.479,14.075 109.486,14.04C109.496,14.006 109.49,13.942 109.523,13.919C109.535,13.893 109.569,13.875 109.588,13.857C109.598,13.848 109.66,13.832 109.659,13.86C109.658,13.879 109.652,13.897 109.639,13.913C109.636,13.915 109.635,13.916 109.634,13.918C109.646,13.922 109.656,13.928 109.666,13.934C109.688,13.948 109.664,13.965 109.651,13.971ZM107.547,6.963C107.53,6.946 107.509,6.93 107.489,6.916C107.471,6.916 107.458,6.911 107.462,6.895C107.463,6.895 107.463,6.895 107.463,6.894C107.443,6.879 107.407,6.856 107.398,6.854C107.35,6.85 107.369,6.811 107.407,6.803C107.416,6.801 107.425,6.799 107.435,6.797C107.429,6.783 107.436,6.768 107.47,6.756C107.497,6.749 107.548,6.747 107.57,6.771C107.575,6.77 107.58,6.77 107.584,6.77C107.598,6.769 107.639,6.774 107.63,6.797C107.627,6.804 107.62,6.809 107.614,6.813C107.617,6.815 107.621,6.817 107.626,6.821C107.65,6.852 107.655,6.897 107.662,6.936C107.668,6.978 107.569,6.987 107.547,6.963ZM109.795,13.62C109.795,10.76 108.841,8.124 107.238,6.008C107.245,6.079 107.252,6.147 107.256,6.216C107.308,6.239 107.354,6.265 107.399,6.317C107.439,6.364 107.317,6.408 107.282,6.394C107.273,6.39 107.267,6.385 107.257,6.382C107.254,6.465 107.246,6.548 107.229,6.633C107.221,6.666 107.161,6.7 107.12,6.695C108.53,8.711 109.29,11.108 109.29,13.62C109.29,16.09 108.556,18.445 107.192,20.439C107.241,20.659 107.29,20.878 107.341,21.098C108.884,19.004 109.795,16.419 109.795,13.62Z" style="fill:white;fill-rule:nonzero;"/>
        <path d="M107.076,20.606C106.967,20.76 106.853,20.913 106.735,21.062C106.836,21.204 106.946,21.338 107.042,21.483C107.108,21.402 107.175,21.321 107.238,21.237C107.171,21.032 107.121,20.819 107.076,20.606Z" style="fill:white;fill-rule:nonzero;"/>
        <path d="M106.596,21.237C106.525,21.323 106.456,21.407 106.384,21.492C106.413,21.584 106.443,21.677 106.469,21.77C106.52,21.84 106.561,21.926 106.594,21.995C106.597,21.999 106.599,22.004 106.601,22.01C106.641,21.965 106.682,21.92 106.723,21.873C106.725,21.77 106.748,21.657 106.771,21.571C106.731,21.489 106.699,21.405 106.668,21.319C106.644,21.292 106.621,21.264 106.596,21.237Z" style="fill:white;fill-rule:nonzero;"/>
        <path d="M106.188,22.102C106.193,22.106 106.196,22.113 106.195,22.123C106.19,22.243 106.166,22.358 106.134,22.473C106.216,22.354 106.308,22.243 106.42,22.148C106.351,22.113 106.284,22.073 106.226,22.026C106.212,22.051 106.2,22.077 106.188,22.102Z" style="fill:white;fill-rule:nonzero;"/>
        <path d="M105.236,22.729C105.271,22.694 105.342,22.668 105.355,22.706C105.371,22.754 105.394,22.794 105.42,22.829C105.428,22.819 105.434,22.808 105.44,22.798C105.48,22.707 105.519,22.614 105.55,22.52C105.537,22.481 105.528,22.44 105.524,22.399C105.424,22.495 105.322,22.588 105.219,22.68C105.226,22.696 105.23,22.712 105.236,22.729Z" style="fill:white;fill-rule:nonzero;"/>
        <path d="M98.201,26.075C98.275,25.941 98.353,25.809 98.425,25.673C98.377,25.678 98.329,25.684 98.28,25.688C98.201,25.861 98.124,26.036 98.048,26.212C98.078,26.209 98.106,26.207 98.134,26.206C98.154,26.161 98.177,26.118 98.201,26.075Z" style="fill:white;fill-rule:nonzero;"/>
        <path d="M85.585,18.018C85.58,18.01 85.576,18.002 85.572,17.994C85.553,18.002 85.535,18.002 85.528,17.983C85.515,17.945 85.501,17.903 85.499,17.864C85.497,17.829 85.563,17.78 85.592,17.809C85.618,17.836 85.636,17.87 85.653,17.903C85.662,17.92 85.677,17.944 85.679,17.963C85.682,17.997 85.609,18.051 85.585,18.018ZM97.172,25.737C93.936,25.737 90.893,24.477 88.605,22.188C87.37,20.954 86.435,19.498 85.835,17.913C85.833,17.911 85.83,17.909 85.829,17.907C85.78,17.813 85.735,17.722 85.7,17.627C85.691,17.624 85.683,17.62 85.679,17.611C85.634,17.508 85.622,17.453 85.64,17.377C85.627,17.387 85.614,17.397 85.602,17.409C85.585,17.422 85.536,17.441 85.502,17.443C85.46,17.495 85.419,17.547 85.378,17.6C85.352,17.634 85.228,17.677 85.228,17.634C85.222,17.642 85.216,17.65 85.21,17.657C86.894,22.648 91.614,26.243 97.172,26.243C97.418,26.243 97.661,26.235 97.901,26.221C97.972,26.046 98.046,25.873 98.124,25.7C97.808,25.725 97.492,25.737 97.172,25.737Z" style="fill:white;fill-rule:nonzero;"/>
        <path d="M98.308,26.192C98.442,26.18 98.576,26.165 98.71,26.149C98.641,26.032 98.583,25.908 98.534,25.782C98.485,25.872 98.434,25.959 98.385,26.048C98.358,26.096 98.332,26.143 98.308,26.192Z" style="fill:white;fill-rule:nonzero;"/>
        <path d="M99.101,25.766C99.122,25.739 99.144,25.709 99.168,25.686C99.188,25.665 99.251,25.614 99.277,25.649C99.281,25.657 99.28,25.657 99.279,25.657C99.282,25.661 99.285,25.665 99.287,25.669C99.294,25.682 99.302,25.696 99.31,25.709C99.318,25.707 99.325,25.706 99.328,25.706C99.336,25.704 99.345,25.703 99.356,25.704C99.368,25.706 99.372,25.717 99.369,25.727C99.364,25.743 99.353,25.754 99.337,25.76C99.343,25.774 99.345,25.789 99.337,25.8C99.324,25.823 99.288,25.837 99.261,25.832C99.253,25.835 99.245,25.837 99.236,25.84C99.215,25.849 99.195,25.858 99.173,25.864C99.126,25.873 99.12,25.85 99.138,25.828C99.128,25.828 99.121,25.828 99.112,25.831C99.103,25.835 99.103,25.827 99.111,25.823C99.123,25.815 99.134,25.805 99.145,25.796C99.14,25.797 99.135,25.798 99.13,25.799C99.108,25.803 99.083,25.791 99.101,25.766ZM104.662,23.475C104.668,23.404 104.684,23.339 104.749,23.291C104.764,23.28 104.833,23.25 104.833,23.29C104.833,23.331 104.837,23.366 104.807,23.388C104.803,23.415 104.792,23.44 104.771,23.461C104.764,23.469 104.755,23.475 104.746,23.481C104.74,23.501 104.735,23.52 104.727,23.538C104.719,23.552 104.656,23.581 104.658,23.547C104.66,23.532 104.661,23.514 104.661,23.498C104.656,23.492 104.656,23.484 104.662,23.475ZM105.023,23.502C105.084,23.384 105.149,23.268 105.217,23.155C105.141,23.061 105.066,22.967 105.006,22.866C103.201,24.401 101.015,25.357 98.673,25.644C98.767,25.797 98.847,25.96 98.933,26.118C101.216,25.799 103.303,24.873 105.023,23.502Z" style="fill:white;fill-rule:nonzero;"/>
        <path d="M92.15,2.204C92.19,2.321 92.203,2.44 92.208,2.561C92.273,2.532 92.338,2.502 92.404,2.475C92.422,2.291 92.425,2.106 92.426,1.922C92.279,1.982 92.133,2.044 91.988,2.108C91.996,2.146 92.003,2.184 92.012,2.221C92.038,2.186 92.135,2.164 92.15,2.204Z" style="fill:white;fill-rule:nonzero;"/>
        <path d="M103.817,3.45C103.855,3.415 103.896,3.38 103.935,3.346C103.933,3.249 103.929,3.149 103.93,3.049C103.81,3.143 103.686,3.236 103.56,3.321C103.626,3.364 103.693,3.407 103.761,3.45C103.782,3.446 103.804,3.446 103.817,3.45Z" style="fill:white;fill-rule:nonzero;"/>
        <path d="M103.819,2.296C103.883,2.333 103.946,2.373 104.01,2.412C104.04,2.333 104.076,2.258 104.118,2.186C104.084,2.166 104.051,2.145 104.017,2.124C104.01,2.129 104.003,2.132 103.996,2.137C104.022,2.142 104.042,2.153 104.019,2.174C103.957,2.227 103.892,2.268 103.819,2.296Z" style="fill:white;fill-rule:nonzero;"/>
        <path d="M97.172,0.494C99.207,0.494 101.17,0.955 102.943,1.825C102.952,1.749 102.966,1.674 102.969,1.598C102.97,1.587 102.976,1.577 102.985,1.567C101.228,0.718 99.255,0.241 97.172,0.241C95.653,0.241 94.191,0.497 92.829,0.963C92.856,1.042 92.881,1.122 92.906,1.201C94.26,0.737 95.698,0.494 97.172,0.494Z" style="fill:white;fill-rule:nonzero;"/>
        <path d="M92.711,1.269C92.694,1.188 92.673,1.107 92.654,1.026C92.375,1.125 92.098,1.235 91.828,1.352C91.846,1.435 91.864,1.517 91.881,1.6C92.155,1.48 92.431,1.37 92.711,1.269Z" style="fill:white;fill-rule:nonzero;"/>
        <path d="M91.701,1.682C91.685,1.597 91.671,1.512 91.661,1.426C91.453,1.52 91.249,1.621 91.048,1.725C91.119,1.78 91.188,1.838 91.255,1.897C91.403,1.823 91.551,1.75 91.701,1.682Z" style="fill:white;fill-rule:nonzero;"/>
        <path d="M84.045,13.62C84.045,10.114 85.411,6.817 87.891,4.338C88.862,3.367 89.96,2.567 91.146,1.954C91.08,1.893 91.012,1.834 90.945,1.778C86.693,4.02 83.793,8.481 83.793,13.62C83.793,15.051 84.02,16.43 84.434,17.723C84.502,17.657 84.567,17.589 84.634,17.522C84.247,16.276 84.045,14.963 84.045,13.62Z" style="fill:white;fill-rule:nonzero;"/>
        <path d="M106.5,4.385C106.502,4.363 106.504,4.34 106.508,4.318C106.514,4.282 106.616,4.243 106.62,4.291C106.627,4.379 106.648,4.465 106.664,4.553C106.694,4.584 106.724,4.616 106.752,4.648C106.795,4.649 106.837,4.654 106.883,4.656C106.892,4.657 106.92,4.657 106.921,4.672C106.923,4.732 106.927,4.793 106.941,4.851C109.112,7.264 110.3,10.35 110.3,13.62C110.3,13.657 110.299,13.693 110.299,13.729C110.388,13.663 110.473,13.59 110.551,13.509C110.514,8.92 108.165,4.884 104.611,2.502C104.543,2.555 104.475,2.61 104.407,2.665C105.135,3.148 105.822,3.707 106.455,4.338C106.471,4.354 106.484,4.37 106.5,4.385Z" style="fill:white;fill-rule:nonzero;"/>
        <path d="M110.405,14.141C110.402,14.128 110.426,14.117 110.456,14.109C110.403,14.09 110.348,14.078 110.292,14.065C110.287,14.221 110.277,14.376 110.268,14.532C110.35,14.536 110.434,14.551 110.518,14.571C110.526,14.448 110.533,14.324 110.539,14.2C110.497,14.188 110.456,14.174 110.416,14.152C110.41,14.149 110.406,14.144 110.405,14.141Z" style="fill:white;fill-rule:nonzero;"/>
        <path d="M110.328,15.481C110.36,15.48 110.391,15.483 110.421,15.489C110.434,15.398 110.445,15.307 110.456,15.215C110.399,15.231 110.342,15.241 110.285,15.248C110.304,15.326 110.318,15.403 110.328,15.481Z" style="fill:white;fill-rule:nonzero;"/>
        <path d="M110.246,16.083C110.193,16.135 110.136,16.182 110.076,16.225C110.122,16.316 110.175,16.407 110.241,16.483C110.27,16.351 110.297,16.218 110.322,16.084C110.312,16.086 110.303,16.088 110.294,16.09C110.286,16.09 110.266,16.088 110.246,16.083Z" style="fill:white;fill-rule:nonzero;"/>
        <path d="M109.963,16.579C109.717,17.651 109.34,18.684 108.836,19.657C108.926,19.553 109.078,19.488 109.217,19.454C109.613,18.635 109.928,17.769 110.151,16.868C110.066,16.805 110.007,16.693 109.963,16.579Z" style="fill:white;fill-rule:nonzero;"/>
        <path d="M107.091,22.217C107.093,22.249 107.097,22.28 107.102,22.31C107.132,22.309 107.155,22.316 107.147,22.342C107.143,22.366 107.135,22.391 107.129,22.414C107.129,22.415 107.13,22.418 107.131,22.42C107.195,22.335 107.26,22.25 107.328,22.168C107.3,22.127 107.27,22.086 107.239,22.045C107.191,22.103 107.141,22.161 107.091,22.217Z" style="fill:white;fill-rule:nonzero;"/>
        <path d="M108.554,20.17C108.199,20.787 107.789,21.375 107.331,21.932C107.362,21.975 107.394,22.016 107.424,22.059C107.566,21.899 107.721,21.752 107.896,21.623C108.143,21.294 108.372,20.953 108.589,20.6C108.559,20.461 108.551,20.313 108.554,20.17Z" style="fill:white;fill-rule:nonzero;"/>
        <path d="M87.891,22.903C86.374,21.385 85.274,19.561 84.649,17.571C84.583,17.637 84.515,17.702 84.449,17.767C86.195,23.126 91.231,27 97.172,27C97.317,27 97.46,26.997 97.602,26.993C97.634,26.907 97.666,26.821 97.698,26.736C97.523,26.743 97.348,26.747 97.172,26.747C93.667,26.747 90.37,25.381 87.891,22.903Z" style="fill:white;fill-rule:nonzero;"/>
        <path d="M98.121,26.713C98.111,26.765 98.102,26.819 98.097,26.873C98.095,26.906 98.093,26.936 98.092,26.968C98.215,26.96 98.339,26.949 98.463,26.938C98.409,26.852 98.353,26.77 98.282,26.7C98.228,26.706 98.174,26.709 98.121,26.713Z" style="fill:white;fill-rule:nonzero;"/>
        <path d="M106.043,23.295C104.005,25.17 101.471,26.331 98.748,26.653C98.721,26.713 98.711,26.778 98.699,26.844C98.718,26.865 98.74,26.884 98.759,26.906C101.64,26.565 104.24,25.31 106.262,23.438C106.259,23.36 106.264,23.282 106.277,23.206C106.237,23.238 106.198,23.27 106.156,23.3C106.129,23.319 106.04,23.334 106.043,23.295Z" style="fill:white;fill-rule:nonzero;"/>
        <path d="M103.652,2.189C103.688,2.118 103.726,2.046 103.765,1.976C103.701,1.94 103.636,1.906 103.572,1.871C103.557,1.939 103.537,2.006 103.511,2.071C103.511,2.081 103.51,2.09 103.51,2.1C103.51,2.104 103.506,2.111 103.499,2.116C103.547,2.141 103.597,2.166 103.644,2.194C103.646,2.192 103.648,2.19 103.652,2.189Z" style="fill:white;fill-rule:nonzero;"/>
        <path d="M105.008,15.762C104.967,15.686 104.92,15.614 104.878,15.54C104.844,15.653 104.818,15.77 104.793,15.885C104.873,15.852 104.952,15.817 105.03,15.778C105.021,15.774 105.012,15.77 105.008,15.762Z" style="fill:white;fill-rule:nonzero;"/>
        <path d="M87.188,12.729C87.208,12.706 87.234,12.665 87.266,12.623C87.103,12.44 86.956,12.254 86.823,12.087C86.823,12.415 86.858,12.723 86.922,13.014C87.015,12.919 87.105,12.825 87.188,12.729Z" style="fill:white;fill-rule:nonzero;"/>
        <path d="M105.325,14.259C105.263,14.304 105.185,14.364 105.1,14.346C105.084,14.342 105.071,14.332 105.061,14.319C105.04,14.334 104.979,14.336 104.986,14.311C105.004,14.247 105.028,14.186 105.06,14.125C105.056,14.122 105.054,14.12 105.052,14.114C105.048,14.1 105.062,14.092 105.08,14.086C105.087,14.073 105.092,14.06 105.1,14.047C105.115,14.024 105.228,14.002 105.227,14.045C105.226,14.067 105.219,14.087 105.213,14.108C105.219,14.113 105.224,14.116 105.229,14.122L105.229,14.123C105.242,14.133 105.254,14.144 105.26,14.156C105.284,14.182 105.309,14.208 105.331,14.235C105.337,14.243 105.332,14.253 105.325,14.259ZM104.492,14.563C104.481,14.603 104.404,14.622 104.368,14.612C104.336,14.604 104.315,14.583 104.301,14.559C104.261,14.588 104.222,14.617 104.173,14.635C104.146,14.643 104.046,14.657 104.075,14.603C104.084,14.588 104.094,14.574 104.104,14.56C104.069,14.572 103.979,14.573 104.027,14.533C104.141,14.437 104.278,14.37 104.387,14.268C104.407,14.248 104.516,14.209 104.528,14.258C104.554,14.37 104.522,14.456 104.492,14.563ZM104.381,15.713C104.379,15.724 104.365,15.736 104.35,15.748L104.349,15.748C104.337,15.766 104.315,15.774 104.295,15.778C104.291,15.781 104.287,15.782 104.284,15.785C104.236,15.813 104.189,15.84 104.14,15.863C104.107,15.877 104.02,15.864 104.08,15.831C104.109,15.815 104.154,15.793 104.192,15.766C104.143,15.748 104.104,15.711 104.128,15.65C104.137,15.625 104.214,15.615 104.226,15.639C104.23,15.649 104.236,15.663 104.246,15.674C104.259,15.635 104.265,15.596 104.28,15.553C104.292,15.514 104.426,15.502 104.415,15.553C104.404,15.606 104.394,15.659 104.381,15.713ZM101.835,13.963C101.781,13.852 101.719,13.747 101.672,13.635C101.717,13.641 101.762,13.645 101.802,13.633C101.884,13.706 101.966,13.779 102.049,13.855C101.978,13.889 101.906,13.929 101.835,13.963ZM97.881,12.491C97.818,12.545 97.753,12.597 97.686,12.647C97.561,12.745 97.432,12.843 97.293,12.921C97.267,12.936 97.158,12.927 97.21,12.894C97.336,12.814 97.452,12.715 97.565,12.62C97.653,12.543 97.734,12.442 97.827,12.372C97.848,12.356 97.983,12.349 97.97,12.395C97.96,12.434 97.912,12.464 97.881,12.491ZM97.553,13.576C97.514,13.604 97.461,13.612 97.414,13.612C97.368,13.612 97.383,13.578 97.42,13.575C97.455,13.573 97.476,13.559 97.489,13.532C97.483,13.526 97.48,13.52 97.483,13.511C97.493,13.487 97.5,13.471 97.521,13.455C97.538,13.44 97.577,13.438 97.594,13.452C97.652,13.497 97.597,13.545 97.553,13.576ZM97.273,13.285C97.251,13.271 97.275,13.252 97.29,13.248C97.341,13.229 97.392,13.203 97.43,13.164C97.465,13.129 97.48,13.081 97.526,13.057C97.543,13.049 97.581,13.044 97.597,13.059C97.621,13.082 97.614,13.099 97.596,13.125C97.579,13.152 97.557,13.176 97.533,13.196C97.478,13.237 97.418,13.266 97.351,13.286C97.327,13.292 97.294,13.297 97.273,13.285ZM97.02,13.648C97.023,13.657 97.024,13.665 97.027,13.674C97.034,13.705 96.959,13.74 96.938,13.716C96.918,13.694 96.903,13.67 96.888,13.647C96.868,13.651 96.85,13.649 96.844,13.631C96.81,13.541 96.776,13.456 96.772,13.36C96.771,13.346 96.785,13.327 96.804,13.311C96.805,13.293 96.807,13.277 96.809,13.261C96.816,13.217 96.932,13.141 96.949,13.207C96.963,13.268 96.973,13.327 96.978,13.387C96.981,13.392 96.984,13.395 96.987,13.398C97.023,13.373 97.067,13.362 97.085,13.391C97.118,13.441 97.099,13.499 97.12,13.554C97.133,13.593 97.068,13.643 97.02,13.648ZM96.738,14.19C96.737,14.202 96.727,14.206 96.712,14.207L96.712,14.218C96.712,14.26 96.599,14.336 96.573,14.286C96.562,14.264 96.549,14.245 96.537,14.223C96.511,14.234 96.488,14.237 96.48,14.219C96.447,14.141 96.411,14.065 96.377,13.986C96.377,13.983 96.375,13.978 96.373,13.975C96.363,13.949 96.349,13.922 96.339,13.895C96.332,13.872 96.351,13.844 96.377,13.825C96.377,13.825 96.377,13.821 96.376,13.821C96.361,13.797 96.388,13.789 96.41,13.79C96.468,13.793 96.523,13.819 96.581,13.821C96.608,13.825 96.675,13.834 96.675,13.873C96.675,13.915 96.675,13.956 96.675,13.998C96.695,13.997 96.71,14.002 96.713,14.023C96.72,14.057 96.727,14.122 96.737,14.139C96.74,14.148 96.739,14.157 96.735,14.167C96.737,14.174 96.739,14.183 96.738,14.19ZM96.438,14.477C96.438,14.493 96.422,14.514 96.404,14.533C96.344,14.641 96.219,14.724 96.092,14.718C96.057,14.717 96.066,14.696 96.085,14.672C96.101,14.559 96.096,14.461 96.185,14.37C96.196,14.359 96.233,14.332 96.262,14.327C96.292,14.299 96.338,14.274 96.366,14.303C96.388,14.329 96.405,14.356 96.413,14.39C96.427,14.389 96.439,14.395 96.438,14.411C96.438,14.432 96.438,14.455 96.438,14.477ZM96.383,13.343C96.385,13.331 96.389,13.317 96.4,13.301C96.41,13.284 96.453,13.256 96.474,13.272C96.505,13.293 96.505,13.313 96.516,13.346C96.523,13.348 96.529,13.352 96.534,13.356C96.577,13.387 96.574,13.432 96.564,13.479C96.558,13.506 96.471,13.573 96.45,13.532C96.43,13.497 96.417,13.46 96.404,13.422C96.386,13.416 96.371,13.411 96.359,13.396C96.347,13.38 96.364,13.358 96.383,13.343ZM87.554,13.666C87.522,13.698 87.453,13.721 87.45,13.682C87.447,13.635 87.433,13.579 87.409,13.532C87.381,13.559 87.326,13.581 87.324,13.546C87.319,13.46 87.347,13.376 87.349,13.29C87.349,13.248 87.453,13.191 87.468,13.244C87.489,13.317 87.516,13.389 87.538,13.461C87.574,13.502 87.596,13.554 87.634,13.594C87.662,13.625 87.58,13.664 87.554,13.666ZM105.903,15.291C106.028,15.2 106.15,15.101 106.264,14.997C106.347,14.907 106.423,14.807 106.497,14.714C106.646,14.526 106.802,14.311 106.981,14.125C107.322,13.555 107.521,12.877 107.523,12.087C106.967,12.791 106.152,13.776 105.043,13.805C104.951,13.95 104.85,14.088 104.747,14.216C104.737,14.227 104.685,14.231 104.693,14.215C104.772,14.076 104.855,13.94 104.936,13.803C104.798,13.799 104.656,13.78 104.511,13.744C104.17,14.075 103.829,14.401 103.573,14.799C103.549,14.836 103.421,14.877 103.459,14.803C103.646,14.438 103.951,14.139 104.243,13.849C104.29,13.803 104.337,13.756 104.386,13.709C104.184,13.647 103.974,13.553 103.755,13.42C103.665,13.508 103.575,13.598 103.495,13.697C103.469,13.729 103.328,13.737 103.366,13.686C103.445,13.579 103.509,13.461 103.581,13.35C103.524,13.366 103.466,13.379 103.405,13.395C103.395,13.399 103.316,13.405 103.332,13.372C103.362,13.312 103.389,13.25 103.417,13.188C103.416,13.188 103.414,13.186 103.413,13.186C103.355,13.188 103.307,13.174 103.229,13.166C103.166,13.159 103.262,13.105 103.293,13.106C103.301,13.108 103.31,13.108 103.316,13.11C103.22,13.032 103.122,12.948 103.023,12.854C102.956,12.791 102.89,12.734 102.823,12.673C102.821,12.674 102.819,12.675 102.817,12.676C102.713,12.721 102.607,12.765 102.498,12.799C102.479,12.805 102.414,12.818 102.401,12.79C102.34,12.641 102.243,12.497 102.198,12.34C102.166,12.334 102.135,12.329 102.106,12.327C102.08,12.325 102.019,12.323 102.016,12.286C102.011,12.21 101.986,12.14 101.97,12.069C101.961,12.078 101.952,12.086 101.945,12.097C101.919,12.13 101.808,12.146 101.791,12.094C101.759,11.983 101.713,11.872 101.677,11.759C101.17,11.413 100.672,11.153 100.191,11C99.941,11.004 99.689,10.974 99.441,10.952C99.224,10.93 98.993,10.888 98.776,10.913C98.7,10.921 98.624,10.933 98.548,10.946C98.152,11.065 97.776,11.292 97.424,11.645C97.328,11.741 97.245,11.847 97.172,11.959C97.101,11.847 97.017,11.741 96.92,11.645C95.395,10.114 93.393,10.92 91.322,12.854C90.749,13.393 90.224,13.668 89.749,13.764C89.745,13.766 89.741,13.77 89.736,13.773C89.747,13.778 89.757,13.78 89.767,13.786C89.795,13.799 89.781,13.825 89.76,13.838C89.597,13.951 89.431,14.039 89.236,14.086C89.203,14.095 89.155,14.082 89.186,14.045C89.217,14.007 89.232,13.956 89.25,13.906C89.201,13.907 89.15,13.903 89.099,13.899C89.116,13.907 89.132,13.915 89.149,13.921C89.201,13.94 89.097,13.995 89.062,13.985C88.945,13.948 88.838,13.895 88.735,13.834C88.72,13.831 88.707,13.825 88.692,13.819C88.684,13.817 88.676,13.81 88.679,13.801C88.691,13.755 88.691,13.719 88.686,13.688C88.65,13.674 88.615,13.661 88.581,13.647C88.565,13.663 88.55,13.677 88.537,13.695C88.522,13.715 88.426,13.741 88.446,13.695C88.46,13.665 88.47,13.633 88.481,13.602C88.031,13.391 87.644,13.041 87.318,12.68C87.194,12.827 87.074,12.979 86.95,13.126C87.024,13.42 87.129,13.693 87.262,13.946C87.458,14.248 87.664,14.563 87.922,14.809C88.273,15.143 88.675,15.358 89.078,15.617C89.194,15.692 89.31,15.77 89.426,15.85C90.466,16.299 91.712,16.471 92.959,16.367C93.058,16.321 93.162,16.291 93.279,16.305C93.293,16.303 93.307,16.307 93.322,16.311C93.452,16.248 93.549,16.17 93.627,16.043C93.638,16.026 93.701,16.005 93.732,16.014C93.765,15.969 93.798,15.924 93.83,15.879C93.845,15.858 93.958,15.827 93.956,15.871C93.947,15.991 93.914,16.093 93.857,16.184C93.931,16.147 94.005,16.129 94.086,16.132C94.366,16.05 94.657,15.989 94.947,15.943C95.01,15.907 95.074,15.873 95.139,15.842C95.3,15.763 95.466,15.696 95.634,15.657C96.015,15.456 96.336,15.225 96.596,14.972C96.598,14.957 96.601,14.944 96.602,14.929C96.605,14.915 96.606,14.901 96.607,14.887C96.585,14.84 96.615,14.762 96.624,14.72C96.629,14.691 96.728,14.719 96.727,14.751C96.727,14.782 96.725,14.813 96.723,14.842C96.906,14.645 97.056,14.438 97.172,14.225C97.22,14.313 97.276,14.4 97.335,14.486C97.359,14.463 97.42,14.448 97.427,14.475C97.517,14.865 97.963,15.082 98.246,15.317C98.335,15.393 98.424,15.471 98.513,15.548C98.65,15.628 98.795,15.704 98.951,15.774C98.951,15.771 98.952,15.768 98.953,15.764C98.96,15.722 99.059,15.718 99.085,15.744C99.159,15.821 99.252,15.881 99.347,15.938C99.491,15.99 99.639,16.04 99.794,16.082C100.586,16.303 101.416,16.409 102.227,16.397C102.3,16.329 102.379,16.28 102.498,16.266C102.538,16.261 102.553,16.29 102.521,16.315C102.505,16.331 102.487,16.342 102.469,16.356C102.604,16.323 102.741,16.297 102.879,16.274C102.919,16.231 102.966,16.193 103.012,16.157C103.032,16.141 103.122,16.11 103.126,16.156C103.244,16.013 103.349,15.86 103.467,15.717C103.491,15.688 103.635,15.655 103.599,15.714C103.539,15.816 103.482,15.918 103.424,16.022C103.453,16.03 103.481,16.04 103.509,16.05C103.512,16.047 103.516,16.043 103.519,16.04C103.53,16.024 103.618,15.997 103.619,16.031C103.62,16.055 103.621,16.079 103.621,16.103C103.667,16.127 103.712,16.153 103.755,16.18C103.783,16.198 103.762,16.213 103.736,16.225L103.736,16.226C103.955,16.179 104.168,16.122 104.374,16.055C104.519,15.885 104.638,15.69 104.753,15.508C104.771,15.446 104.79,15.381 104.813,15.321C104.831,15.276 104.954,15.274 104.97,15.319C105.003,15.414 105.058,15.499 105.113,15.584C105.141,15.584 105.168,15.584 105.196,15.584C105.228,15.577 105.266,15.577 105.291,15.588C105.316,15.588 105.342,15.591 105.369,15.592C105.491,15.442 105.681,15.394 105.857,15.315C105.873,15.307 105.887,15.299 105.903,15.291Z" style="fill:white;fill-rule:nonzero;"/>
        <path d="M90.372,21.241L90.371,21.242C90.37,21.244 90.37,21.245 90.369,21.247C90.182,21.584 90.316,21.297 90.229,21.256C90.152,21.223 90.372,20.875 90.336,21.135C90.42,21.099 90.391,21.207 90.372,21.241ZM90.344,20.77C90.162,21.043 90.006,21.207 89.685,21.028C89.643,21.004 89.383,20.776 89.383,20.962C89.384,21.083 89.647,21.184 89.725,21.239C89.9,21.326 90.044,21.52 90.195,21.637C90.443,21.829 90.685,22.048 90.953,22.207C91.073,22.063 90.654,21.829 90.597,21.652C90.648,21.538 90.694,21.434 90.788,21.34C90.759,21.201 90.451,20.913 90.344,20.77Z" style="fill:white;fill-rule:nonzero;"/>
        <path d="M92.746,20.079C92.75,20.075 92.736,20.073 92.746,20.079Z" style="fill:white;fill-rule:nonzero;"/>
        <path d="M91.405,20.543C91.476,20.47 91.914,20.04 91.882,19.938C91.967,19.858 92.034,19.641 92.156,19.637C92.1,19.596 92.348,19.655 92.335,19.655C92.395,19.688 92.822,19.98 92.746,20.079C92.752,20.084 92.675,20.409 92.627,20.497C92.582,20.564 92.556,20.644 92.493,20.694C92.158,21.018 91.729,20.852 91.405,20.543ZM92.054,21.926C91.841,22.16 91.942,21.784 91.942,21.737C92.069,21.621 92.065,21.92 92.054,21.926ZM91.382,19.953C91.335,19.924 91.525,19.801 91.534,19.791C91.615,19.716 91.64,19.803 91.626,19.879C91.626,19.879 91.676,19.882 91.68,19.891C91.732,19.975 91.353,20.096 91.409,20.009C91.442,19.957 91.348,19.997 91.382,19.953ZM91.777,19.415C91.909,19.324 91.905,19.456 91.982,19.539C92.002,19.561 91.892,19.795 91.847,19.704C91.824,19.657 91.684,19.77 91.673,19.7C91.669,19.663 91.71,19.665 91.707,19.622C91.625,19.642 91.749,19.433 91.777,19.415ZM93.289,20.706C93.267,20.656 93.237,20.528 93.251,20.476C93.283,20.357 93.206,20.357 93.168,20.26C93.102,20.091 92.877,19.981 92.841,19.809C92.696,19.803 92.508,19.629 92.385,19.539C92.247,19.436 92.12,19.323 91.984,19.217C91.928,19.088 91.778,19.118 91.704,19.006C91.573,18.92 91.41,18.654 91.257,18.745C91.208,18.819 91.296,18.856 91.359,18.891C91.415,18.924 91.464,18.964 91.509,19.014C91.579,19.092 91.515,19.126 91.571,19.194C91.635,19.268 91.085,19.88 91.044,19.926C90.968,19.993 90.52,20.448 90.536,20.499C90.433,20.623 90.383,20.633 90.484,20.755C90.613,20.911 90.732,21.073 90.875,21.217C90.867,21.106 91.068,21.035 91.127,20.972C91.114,20.961 91.1,20.952 91.087,20.942C91.119,20.899 91.188,20.909 91.225,20.86C91.217,20.853 91.18,20.831 91.173,20.828C91.197,20.786 91.242,20.823 91.277,20.813C91.269,20.805 91.262,20.798 91.253,20.791C91.299,20.783 91.415,20.709 91.305,20.67C91.309,20.663 91.313,20.655 91.318,20.647C91.499,20.719 91.584,20.932 91.766,20.989C91.943,21.043 91.764,21.198 91.844,21.256C91.712,21.293 91.592,21.604 91.526,21.713C91.49,21.899 91.333,22.059 91.292,22.252C91.252,22.434 91.376,22.904 91.657,22.741C91.708,22.71 91.917,22.76 92,22.723C92.096,22.678 92.166,22.575 92.229,22.5C92.281,22.437 92.377,22.295 92.22,22.239C92.097,22.195 91.926,22.554 91.835,22.614C91.86,22.561 91.866,22.436 91.865,22.374C91.943,22.189 92.106,22.013 92.19,21.872C92.335,21.625 92.326,21.41 92.145,21.191C92.645,21.428 93.136,21.237 93.289,20.706Z" style="fill:white;fill-rule:nonzero;"/>
        <path d="M95.682,23.102C95.653,23.168 95.629,23.231 95.543,23.207C95.505,23.198 95.614,22.965 95.619,22.921C95.449,22.95 95.57,22.715 95.641,22.682C95.688,22.606 95.806,22.643 95.737,22.758C95.728,22.784 95.741,22.795 95.776,22.793C95.774,22.902 95.728,23.005 95.682,23.102ZM96.136,22.684C96.169,22.516 95.595,22.149 95.483,22.502C95.413,22.719 95.335,22.956 95.228,23.162C95.167,23.279 94.903,23.821 94.732,23.742C94.738,23.75 94.744,23.76 94.75,23.769C94.652,23.807 94.471,23.86 94.369,23.84C94.393,23.749 94.252,23.757 94.184,23.702C93.996,23.547 93.975,23.298 93.947,23.079C93.946,22.975 93.942,22.918 93.941,22.823C94.031,22.768 93.978,22.623 93.997,22.536C94,22.387 94.076,22.053 94.184,21.93C94.291,21.811 94.381,21.67 94.453,21.567C94.412,21.241 95.386,20.909 95.365,21.264C95.46,21.398 95.465,21.625 95.491,21.762C95.507,21.85 95.572,21.973 95.543,22.065C95.529,22.073 95.502,22.315 95.51,22.352C95.731,22.226 95.945,22.089 96.162,21.959C96.181,21.895 96.09,21.707 96.064,21.659C95.89,21.338 95.674,21.233 95.393,21.008C95.141,20.893 94.738,20.887 94.484,20.981C94.21,20.956 93.901,21.196 93.754,21.409C93.633,21.584 93.201,22.059 93.318,22.305C93.23,22.524 93.377,22.784 93.303,22.987C93.335,23.134 93.474,23.284 93.547,23.426C93.602,23.75 93.777,23.723 94.024,23.86C94.117,23.911 94.333,24.076 94.436,24.056C94.624,24.021 94.807,24.053 94.971,23.976C95.113,24.036 95.462,23.769 95.55,23.684C95.652,23.584 96.181,22.948 96.091,22.796C96.098,22.756 96.115,22.719 96.136,22.687C96.139,22.672 96.137,22.68 96.136,22.684Z" style="fill:white;fill-rule:nonzero;"/>
        <path d="M96.148,22.088C96.033,22.153 95.918,22.217 95.803,22.28C95.926,22.362 96.051,22.438 96.169,22.528C96.171,22.512 96.174,22.498 96.177,22.482C96.177,22.483 96.176,22.483 96.177,22.482C96.19,22.395 96.18,22.471 96.177,22.482C96.198,22.332 96.164,22.221 96.148,22.088Z" style="fill:white;fill-rule:nonzero;"/>
        <path d="M97.152,22.733C97.154,22.735 97.156,22.736 97.161,22.74C97.209,22.767 97.188,22.765 97.213,22.75C97.188,22.778 97.348,22.816 97.365,22.823C97.422,22.788 97.496,22.495 97.541,22.42C97.37,22.411 97.134,22.483 96.99,22.575C97.048,22.643 97.087,22.682 97.152,22.733Z" style="fill:white;fill-rule:nonzero;"/>
        <path d="M97.264,24.221C97.34,24.196 97.386,24.09 97.426,24.047C97.579,23.883 97.578,23.973 97.766,24.058C97.933,24.227 98.398,24.29 98.618,24.151C98.881,23.983 99.085,23.9 99.207,23.552C99.135,23.581 99.062,23.604 98.988,23.625C98.815,23.674 98.914,23.715 98.799,23.823C98.739,23.934 98.878,23.864 98.705,23.961C98.542,24.052 98.396,24.092 98.211,24.084C98.046,24.078 97.922,23.959 97.775,23.942C97.711,23.934 97.576,23.761 97.595,23.715C97.631,23.625 97.464,23.498 97.418,23.389C97.398,23.346 97.441,23.148 97.347,23.209C97.316,23.118 97.314,22.946 97.198,22.906C97.045,22.879 97.193,23.124 97.128,23.201C97.122,23.25 97.068,23.347 97.078,23.404C97.096,23.51 97.142,23.68 97.148,23.749C97.117,23.8 97.189,24.206 97.264,24.221Z" style="fill:white;fill-rule:nonzero;"/>
        <path d="M98.956,22.76C98.953,22.668 99.054,22.625 99.002,22.561C98.896,22.515 98.795,22.458 98.707,22.387C98.642,22.553 98.845,22.682 98.956,22.76Z" style="fill:white;fill-rule:nonzero;"/>
        <path d="M98.823,21.53C98.757,21.43 98.874,21.006 98.662,21.074C98.616,21.088 98.605,21.319 98.486,21.362C98.409,21.393 98.386,21.356 98.344,21.346C98.171,21.304 98.033,21.155 97.845,21.151C97.662,21.136 97.375,21.209 97.253,21.356C97.139,21.398 97.124,21.409 97.061,21.521C96.951,21.717 96.831,22.012 96.887,22.217C96.948,22.319 96.964,22.391 97.024,22.475C97.207,22.408 97.496,22.274 97.685,22.388C97.781,22.444 97.377,22.815 97.629,22.938C97.663,22.955 97.83,22.903 97.908,22.936C98.072,23.011 98.256,23.01 98.425,23.102C98.562,23.176 98.888,23.364 98.774,23.547C98.776,23.549 98.883,23.625 98.884,23.584C98.924,23.571 99.223,23.479 99.225,23.438C99.257,23.361 99.188,23.268 99.222,23.2C99.177,23.079 99.015,22.998 98.97,22.85C98.823,22.747 98.477,22.58 98.583,22.346C98.182,22.256 97.504,22.27 97.287,21.852C97.231,21.72 97.248,21.53 97.386,21.443C97.502,21.457 97.516,21.352 97.646,21.329C97.81,21.298 98.051,21.319 98.198,21.428C98.306,21.512 98.359,21.628 98.474,21.697C98.507,21.74 98.548,21.834 98.588,21.883C98.638,21.943 98.947,22.303 98.893,21.939C98.872,21.797 98.854,21.665 98.823,21.53Z" style="fill:white;fill-rule:nonzero;"/>
        <path d="M101.305,21.364C101.313,21.358 101.308,21.362 101.305,21.364Z" style="fill:white;fill-rule:nonzero;"/>
        <path d="M101.211,21.412C101.158,21.409 101.108,21.437 101.057,21.452C101.099,21.55 101.123,21.658 101.151,21.762C101.169,21.64 101.203,21.518 101.265,21.411C101.223,21.415 101.222,21.409 101.226,21.405C101.222,21.405 101.217,21.409 101.211,21.412Z" style="fill:white;fill-rule:nonzero;"/>
        <path d="M100.302,20.553C100.07,20.395 99.73,21.024 99.644,21.15C99.602,21.305 99.635,21.747 99.717,21.875C99.771,21.961 99.823,21.952 99.797,22.04C100.01,21.976 99.918,22.183 99.974,22.274C100.003,22.258 100.039,22.258 100.067,22.24C99.946,22.425 100.13,22.366 100.218,22.266C100.111,22.51 100.346,22.317 100.359,22.316C100.452,22.279 100.393,22.317 100.472,22.307C100.598,22.284 100.755,22.195 100.92,22.195C101.079,22.178 101.143,22.239 101.136,22.057C100.978,22.021 101.096,21.48 100.889,21.498C100.71,21.516 100.536,21.567 100.356,21.52C100.273,21.512 100.227,21.472 100.141,21.496C100.167,21.413 99.992,21.389 99.982,21.379C99.916,21.323 99.772,21.116 99.891,21.03C99.975,20.747 100.399,20.602 100.669,20.682C100.743,20.704 100.851,20.69 100.893,20.78C100.978,20.776 101.034,20.678 101.127,20.704C101.185,20.719 101.163,20.905 101.208,20.971C101.276,20.987 101.561,21.256 101.527,20.977C101.496,20.853 101.387,20.745 101.332,20.639C101.273,20.53 101.223,20.404 101.155,20.305C101.197,20.12 100.868,20.116 100.999,20.355C100.878,20.693 100.587,20.502 100.302,20.553Z" style="fill:white;fill-rule:nonzero;"/>
        <path d="M101.278,22.184C101.3,22.185 101.301,22.18 101.314,22.161C101.319,22.243 101.437,22.209 101.477,22.177C101.471,22.219 101.741,22.332 101.781,22.252C101.811,22.268 101.929,22.375 101.951,22.391C102.065,22.279 102.378,22.129 102.251,21.958C102.211,21.872 102.129,21.808 102.125,21.711C101.983,21.704 101.927,21.47 101.78,21.44C101.689,21.422 101.565,21.387 101.573,21.288C101.29,21.446 101.268,21.902 101.278,22.184Z" style="fill:white;fill-rule:nonzero;"/>
        <path d="M100.481,22.59C100.435,22.538 100.365,22.463 100.303,22.426C100.111,22.308 100.306,22.707 100.312,22.728C100.342,22.832 100.685,23.69 100.8,23.616C100.868,23.553 100.851,23.415 100.887,23.334C100.975,23.14 101.173,23.338 101.302,23.347C101.729,23.377 101.955,23.106 102.221,22.847C102.287,22.782 102.327,22.584 102.391,22.536C102.435,22.428 102.381,22.323 102.343,22.205C102.235,22.287 102.133,22.374 102.032,22.464C102.041,22.482 102.057,22.479 102.073,22.454C102.202,22.802 101.889,23.172 101.514,23.18C101.182,23.188 100.98,23.149 100.75,22.916C100.638,22.813 100.554,22.67 100.481,22.59Z" style="fill:white;fill-rule:nonzero;"/>
        <path d="M102.843,18.748C102.733,18.68 102.51,19.022 102.438,19.09C102.125,19.389 101.745,19.672 101.435,19.993C101.521,20.108 101.556,20.053 101.66,19.974C101.861,19.824 101.959,19.702 102.155,19.84C102.386,20.002 102.545,20.325 102.704,20.506C102.855,20.68 103.049,20.973 103.255,21.132C103.362,21.215 103.292,21.26 103.427,21.221C103.604,21.17 103.579,21.241 103.686,21.338C103.793,21.438 103.499,21.717 103.675,21.786C103.638,21.854 103.42,22.108 103.441,22.168C103.5,22.329 103.759,21.973 103.781,21.948C104.044,21.647 104.393,21.438 104.696,21.189C104.732,21.159 104.854,21.059 104.854,21.006C104.832,20.834 104.472,21.166 104.452,21.175C104.203,21.299 103.977,20.715 103.826,20.735C103.677,20.596 103.482,20.385 103.327,20.206C103.334,20.284 103.354,20.364 103.356,20.441C103.354,20.387 103.188,20.629 103.195,20.674C103.125,20.622 103.098,20.155 103.306,20.181C103.243,20.11 103.182,20.036 103.125,19.959C103.061,20.012 102.998,20.141 102.901,20.075C102.833,20.028 103.055,19.903 103.033,19.838C102.996,19.762 102.918,19.665 102.862,19.602C102.767,19.491 102.521,19.29 102.611,19.114C102.659,19.01 102.999,18.849 102.843,18.748Z" style="fill:white;fill-rule:nonzero;"/>
        <path d="M90.59,7.848C90.589,7.85 90.589,7.85 90.59,7.848C90.648,7.782 90.787,7.694 90.722,7.605C90.663,7.657 90.627,7.612 90.552,7.588C90.553,7.641 90.529,7.918 90.59,7.848Z" style="fill:white;fill-rule:nonzero;"/>
        <path d="M90.683,9.444C91.193,9.399 91.35,8.764 91.359,8.373C91.332,8.336 91.354,8.198 91.354,8.198C91.329,8.118 91.306,8.119 91.276,8.065C91.225,7.976 91.052,7.801 90.957,7.767C90.902,7.747 90.859,7.67 90.814,7.723C90.652,7.916 90.543,7.939 90.603,8.208C90.841,7.991 90.831,8.274 90.977,8.329C91.036,8.36 91.064,8.213 91.151,8.426C91.208,8.571 91.23,8.59 91.188,8.772C91.092,9.182 90.546,9.637 90.129,9.337C89.989,9.311 89.407,9.014 89.417,9.215C89.528,9.311 90.416,9.987 90.484,9.932C90.533,9.892 90.461,9.73 90.457,9.697C90.428,9.473 90.499,9.533 90.683,9.444Z" style="fill:white;fill-rule:nonzero;"/>
        <path d="M88.483,7.546C88.638,7.625 88.679,7.595 88.81,7.495C88.952,7.383 89.087,7.406 89.246,7.376C89.351,7.358 90.024,7.512 89.837,7.262C89.708,7.122 89.438,7.001 89.261,6.924C89.21,6.854 89.062,6.68 88.984,6.817C88.945,6.918 89.15,7.034 89.06,7.204C88.979,7.353 88.62,7.421 88.483,7.546Z" style="fill:white;fill-rule:nonzero;"/>
        <path d="M88.233,8.223C88.245,8.25 88.267,8.255 88.272,8.29C88.339,8.192 88.418,8.097 88.476,7.995C88.508,7.889 88.42,7.94 88.51,7.788C88.465,7.764 88.422,7.735 88.384,7.703C88.298,7.862 88.345,8.112 88.233,8.223Z" style="fill:white;fill-rule:nonzero;"/>
        <path d="M88.7,8.93C88.781,8.973 88.816,8.954 88.85,9.013C89.002,9.016 89.143,9.006 89.306,8.925C89.494,8.833 89.776,8.756 89.869,8.571C89.923,8.464 90.011,8.198 90.084,8.455C90.179,8.395 90.322,8.416 90.395,8.354C90.517,8.547 90.455,8.135 90.466,8.19C90.442,8.083 90.438,7.973 90.429,7.864C90.412,7.647 90.45,7.495 90.171,7.542C90.085,7.557 89.995,7.622 89.911,7.673C89.788,7.911 89.418,8.027 89.247,8.235C89.12,8.311 89.001,8.331 88.883,8.391C88.868,8.318 88.489,8.439 88.462,8.209C88.416,8.272 88.368,8.336 88.32,8.399C88.369,8.504 88.446,8.643 88.525,8.729C88.581,8.79 88.635,8.895 88.7,8.93Z" style="fill:white;fill-rule:nonzero;"/>
        <path d="M91.965,6.57C92.051,6.696 91.944,6.907 91.834,6.731C91.791,6.661 91.702,6.576 91.694,6.489C91.68,6.344 91.948,6.544 91.965,6.57ZM91.42,5.463C91.332,5.338 91.138,5.074 91.269,4.948C91.32,4.899 91.561,4.77 91.504,4.696C91.454,4.629 91.369,4.631 91.318,4.713C91.204,4.899 90.972,5.031 90.816,5.162C90.551,5.386 90.246,5.581 89.989,5.815C90.069,5.934 90.107,5.881 90.217,5.81C90.461,5.65 90.667,5.502 90.877,5.817C91.028,6.041 91.113,6.29 91.303,6.444C91.461,6.575 91.557,6.908 91.736,7.065C91.872,7.182 91.952,7.509 92.129,7.378C92.252,7.29 92.371,7.196 92.491,7.105C92.549,7.061 92.607,7.014 92.663,6.966C92.591,6.872 92.517,6.78 92.441,6.689C92.39,6.831 92.308,6.913 92.243,7.041C92.231,7.063 92.126,7.073 92.133,7.038C92.165,6.889 92.201,6.741 92.268,6.604C92.294,6.402 92.014,6.18 91.898,6.018C91.753,5.817 91.576,5.655 91.42,5.463Z" style="fill:white;fill-rule:nonzero;"/>
        <path d="M92.082,7.493C92.138,7.548 91.987,7.72 92.113,7.743C92.064,7.822 91.727,8.143 91.95,8.145C92.246,8.005 92.475,7.653 92.756,7.475C92.95,7.345 93.139,7.23 93.31,7.099C93.413,7.021 93.283,7.004 93.251,6.993C93.134,6.95 92.919,7.329 92.807,7.164C92.803,7.157 92.792,7.141 92.807,7.164C92.785,7.133 92.762,7.101 92.739,7.069C92.532,7.228 92.308,7.366 92.082,7.493Z" style="fill:white;fill-rule:nonzero;"/>
        <path d="M95.657,4.595C95.917,4.495 95.926,4.323 95.62,4.453C95.397,4.546 95.143,4.584 94.928,4.701C94.799,4.772 94.4,4.848 94.343,4.959C94.29,5 94.356,5.055 94.399,5.053C94.507,4.987 94.621,4.975 94.742,4.943C94.816,4.856 95.074,5.589 95.085,5.671C95.126,5.944 94.952,6.142 94.997,6.394C95.216,6.274 95.175,5.981 95.436,5.886C95.487,5.875 95.655,5.885 95.696,5.936C95.729,6.028 95.775,6.196 95.893,6.11C95.97,6.016 95.629,5.327 95.593,5.206C95.53,5.038 95.466,4.668 95.657,4.595Z" style="fill:white;fill-rule:nonzero;"/>
        <path d="M94.183,6.118C94.072,6.102 93.988,6.444 93.946,6.563C94.079,6.577 94.189,6.643 94.324,6.625C94.387,6.618 94.487,6.534 94.54,6.552C94.713,6.612 94.785,6.528 94.788,6.373C94.567,6.503 94.328,6.303 94.199,6.186C94.21,6.165 94.205,6.141 94.183,6.118Z" style="fill:white;fill-rule:nonzero;"/>
        <path d="M94.278,3.534C94.077,3.436 93.603,3.522 93.498,3.736C93.431,3.868 93.261,3.975 93.186,4.095C93.094,4.282 92.991,4.484 92.958,4.692C92.875,5.078 92.959,5.63 93.143,5.967C93.3,6.01 93.191,6.237 93.419,6.125C93.56,6.055 93.69,5.97 93.823,5.889C93.959,5.805 93.918,5.851 93.888,5.725C93.64,5.477 93.572,5.02 93.512,4.682C93.462,4.399 93.55,4.2 93.542,3.944C93.616,3.861 93.66,3.719 93.781,3.678C93.973,3.608 94.126,3.7 94.307,3.663C94.305,3.653 94.303,3.642 94.3,3.631C94.52,3.85 94.775,3.958 94.959,4.178C95.072,4.213 95.071,4.369 95.158,4.432C95.326,4.553 95.198,4.096 95.162,4.049C95.034,3.879 95.077,3.541 94.964,3.362C94.917,3.347 94.898,3.176 94.808,3.269C94.746,3.351 94.831,3.617 94.762,3.743C94.75,3.764 94.374,3.555 94.278,3.534Z" style="fill:white;fill-rule:nonzero;"/>
        <path d="M93.405,6.262C93.468,6.288 93.735,6.485 93.732,6.553C93.847,6.446 93.873,6.097 93.91,5.936C93.818,5.998 93.411,6.264 93.405,6.262C93.399,6.259 93.404,6.262 93.405,6.262Z" style="fill:white;fill-rule:nonzero;"/>
        <path d="M97.055,3.6C97.057,3.594 97.061,3.588 97.062,3.584C97.061,3.587 97.059,3.592 97.055,3.6Z" style="fill:white;fill-rule:nonzero;"/>
        <path d="M97.263,3.6C97.333,3.447 97.34,3.405 97.443,3.418C97.617,3.36 97.38,3.715 97.373,3.549C97.342,3.583 97.238,3.655 97.263,3.6ZM97.303,3.969C97.299,3.903 97.297,3.846 97.346,3.797C97.314,3.864 97.418,3.878 97.303,3.969ZM98.628,5.074C98.725,5.073 98.809,5.413 98.668,5.317C98.707,5.243 98.228,5.077 98.628,5.074ZM98.792,5.62C98.904,5.431 98.965,5.663 98.898,5.69C98.898,5.79 98.72,5.783 98.792,5.62ZM96.608,5.854C96.507,5.836 96.405,5.856 96.305,5.881C96.305,5.909 96.314,5.977 96.321,5.995C96.626,6.004 96.877,6.002 97.164,6.013C97.243,6.032 97.543,6.117 97.591,6.024C97.64,5.926 97.326,5.819 97.28,5.749C97.028,5.383 97.211,4.897 97.248,4.497C97.272,4.299 97.219,3.992 97.418,3.877C97.447,3.934 97.439,4.004 97.492,4.048C97.488,3.888 97.601,4.047 97.617,4.112C97.675,4.34 97.859,4.475 97.967,4.678C98.087,4.904 98.151,5.126 98.299,5.345C98.456,5.577 98.69,5.774 98.796,6.039C98.814,6.08 99.043,6.266 99.087,6.237C99.164,6.217 99.133,6.231 99.152,6.1C99.217,5.679 99.194,5.327 99.24,4.92C99.272,4.622 99.304,4.325 99.316,4.023C99.32,3.905 99.324,3.555 99.447,3.504C99.411,3.475 99.273,3.477 99.267,3.457C99.251,3.398 99.559,3.409 99.627,3.405C99.62,3.399 99.613,3.393 99.606,3.387C99.646,3.375 99.863,3.409 99.896,3.361C100.061,3.221 99.701,3.233 99.683,3.231C99.443,3.231 99.168,3.198 98.924,3.172C98.845,3.164 98.532,3.058 98.525,3.178C98.58,3.354 98.589,3.207 98.73,3.297C98.803,3.342 98.941,3.519 98.987,3.508C98.992,3.528 98.983,3.532 98.976,3.532C98.985,3.536 98.999,3.541 99.024,3.553C99.024,3.5 99.043,3.467 99.106,3.469C99.183,3.473 99.181,3.692 99.186,3.739C99.207,3.928 99.212,4.186 99.139,4.364C99.117,4.616 99.17,5.05 99.05,5.274C99,5.192 98.911,5.179 98.993,5.085C98.835,5.038 98.828,4.897 98.732,4.798C98.661,4.727 98.574,4.7 98.507,4.61C98.377,4.435 98.386,4.643 98.229,4.594C98.229,4.594 98.299,4.397 98.298,4.366C98.294,4.214 98.17,4.077 98.094,3.954C98.047,3.878 97.696,3.468 97.83,3.442C97.736,3.387 97.71,3.168 97.616,3.106C97.553,3.032 97.281,3.051 97.193,3.051C97.124,3.045 96.618,2.969 96.602,3.025C96.562,3.166 96.686,3.141 96.785,3.182C96.947,3.217 97.025,3.36 97.049,3.475C97.14,3.911 97.078,4.448 97.026,4.903C97.028,5.072 97.023,5.499 96.913,5.627C96.814,5.746 96.821,5.889 96.608,5.854Z" style="fill:white;fill-rule:nonzero;"/>
        <path d="M98.768,3.532C98.752,3.526 98.759,3.533 98.768,3.532Z" style="fill:white;fill-rule:nonzero;"/>
        <path d="M102.215,6.819C102.03,6.741 101.866,6.624 101.719,6.489C101.627,6.592 101.83,7.036 101.726,7.116C101.881,7.115 102.105,6.928 102.215,6.819Z" style="fill:white;fill-rule:nonzero;"/>
        <path d="M101.258,7.193C101.321,7.198 101.517,7.215 101.563,7.186C101.648,7.131 101.557,6.674 101.558,6.672C101.45,6.702 101.301,7.091 101.258,7.193Z" style="fill:white;fill-rule:nonzero;"/>
        <path d="M101.558,6.672C101.563,6.665 101.545,6.676 101.558,6.672Z" style="fill:white;fill-rule:nonzero;"/>
        <path d="M100.938,6.938C100.92,7.014 100.896,7.088 100.863,7.159C100.93,7.185 101.002,7.164 101.06,7.202C101.102,7.108 101.148,7.016 101.194,6.924C101.136,6.941 101.173,6.925 101.137,6.905C101.139,6.916 101.143,6.925 101.146,6.936C101.079,6.946 101.007,6.942 100.938,6.938Z" style="fill:white;fill-rule:nonzero;"/>
        <path d="M102.552,4.545C102.347,4.317 102.085,4.203 101.781,4.174C101.53,4.148 100.98,4.077 100.805,4.358C100.516,4.461 100.357,4.76 100.18,4.985C99.999,5.235 100.011,5.578 99.906,5.862C99.996,6.054 100.077,6.327 100.105,6.528C100.134,6.739 100.629,6.85 100.625,7.041C100.678,6.987 100.727,6.929 100.781,6.877C100.393,6.672 100.525,6.25 100.521,5.961C100.521,5.682 100.814,5.293 100.977,5.059C101.071,4.92 101.24,4.787 101.384,4.702C101.452,4.66 101.615,4.57 101.659,4.51C101.875,4.492 101.896,4.325 102.154,4.463C102.321,4.551 102.325,4.609 102.331,4.793C102.354,4.853 102.301,5.022 102.327,5.062C102.407,5.178 102.772,4.993 102.884,4.947C102.746,4.868 102.659,4.664 102.552,4.545Z" style="fill:white;fill-rule:nonzero;"/>
        <path d="M102.521,5.598C102.507,5.594 102.293,5.309 102.461,5.316C102.473,5.317 102.506,5.318 102.461,5.316C102.512,5.318 102.721,5.317 102.645,5.405C102.724,5.393 102.636,5.635 102.521,5.598ZM102.665,5.998C102.644,6.012 102.619,6.022 102.594,6.024C102.541,6.02 102.448,6.036 102.466,5.956C102.517,5.725 102.686,5.977 102.665,5.998ZM102.835,5.137C102.567,5.194 102.4,5.118 102.301,5.354C102.29,5.491 102.26,5.571 102.217,5.684C102.148,5.909 101.987,6.149 101.845,6.339C101.738,6.481 102.147,6.698 102.277,6.766C102.292,6.75 102.442,6.643 102.412,6.622C102.581,6.535 102.615,6.344 102.734,6.21C102.878,6.046 102.878,5.242 102.951,5.228C102.913,5.19 102.782,5.265 102.749,5.196C102.769,5.165 102.797,5.145 102.835,5.137Z" style="fill:white;fill-rule:nonzero;"/>
        <path d="M103.244,8.442C103.387,8.339 103.281,8.273 103.2,8.128C103.2,8.176 103.17,8.495 103.244,8.442Z" style="fill:white;fill-rule:nonzero;"/>
        <path d="M103.1,7.941C103.066,7.875 103.034,7.81 103.006,7.745C102.714,7.992 102.532,7.883 102.278,7.625C102.165,7.51 102.063,7.617 102.163,7.728C102.243,7.817 102.35,7.889 102.41,7.994C102.646,8.407 103.005,8.87 103.339,9.205C103.492,9.092 103.259,8.92 103.199,8.797C103.109,8.728 102.971,7.984 103.1,7.941Z" style="fill:white;fill-rule:nonzero;"/>
        <path d="M104.827,7.114C104.748,7.111 104.688,6.954 104.7,6.897C104.717,6.823 104.864,6.866 104.893,6.897C104.926,6.934 104.823,6.942 104.802,6.939C104.805,6.974 104.868,7.041 104.869,7.082C104.972,7.009 105.072,6.965 105.162,6.985C105.353,6.987 105.525,7.335 105.592,7.481C105.577,7.602 105.591,7.694 105.515,7.817C105.522,7.803 105.016,8.255 105.02,8.192C104.879,8.233 104.715,8.223 104.59,8.143C104.535,8.09 104.213,7.699 104.194,7.699C104.353,7.611 104.593,7.295 104.827,7.114ZM103.523,8.153C103.522,8.167 103.52,8.184 103.519,8.2C103.631,8.096 103.567,8.075 103.709,8.035C103.798,7.961 103.827,7.964 103.835,7.842C103.834,7.858 103.891,7.602 103.942,7.745C104.066,8.079 104.063,7.803 104.058,7.801C104.064,7.793 104.07,7.787 104.076,7.781C104.173,7.852 104.216,7.979 104.287,8.071C104.319,8.092 104.443,8.225 104.463,8.262C104.46,8.362 104.507,8.356 104.44,8.415C104.421,8.463 104.402,8.459 104.438,8.5C104.399,8.491 104.063,8.815 104.024,8.849C103.795,9.065 103.557,9.395 103.686,9.727C103.811,9.99 104.214,9.999 104.447,9.87C104.546,9.814 104.687,9.674 104.569,9.553C104.464,9.464 104.199,9.779 104.094,9.814C104.085,9.539 104.526,9.293 104.685,9.113C104.649,9.1 104.378,9.051 104.376,9.029C104.368,8.967 104.787,9.003 104.795,8.808C104.8,8.672 104.804,8.635 104.746,8.511C105.039,8.754 105.674,8.903 105.884,8.463C105.86,8.48 105.689,8.182 105.692,8.116C105.699,7.949 105.817,7.803 105.881,7.655C105.849,7.6 105.772,7.34 105.735,7.344C105.589,7.36 105.2,6.739 105.122,6.622C104.954,6.377 104.734,6.182 104.587,5.918C104.248,5.811 104.817,6.432 104.649,6.433C104.718,6.581 104.23,6.891 104.12,6.971C103.942,7.102 103.586,7.223 103.58,7.443C103.574,7.679 103.543,7.916 103.523,8.152C103.524,8.146 103.524,8.142 103.524,8.137C103.524,8.145 103.524,8.15 103.523,8.153Z" style="fill:white;fill-rule:nonzero;"/>
        <path d="M103.527,8.112C103.528,8.104 103.528,8.1 103.527,8.112Z" style="fill:white;fill-rule:nonzero;"/>
        <path d="M105.851,8.249C105.862,8.112 105.899,7.977 105.914,7.84C105.851,7.965 105.769,8.115 105.851,8.249Z" style="fill:white;fill-rule:nonzero;"/>
        <path d="M103.433,7.402C103.325,7.461 103.236,7.54 103.145,7.623C103.014,7.68 103.313,8.131 103.371,8.238C103.392,7.959 103.425,7.682 103.433,7.402Z" style="fill:white;fill-rule:nonzero;"/>
    </g>
</svg>
